Coordinates
version=1
nRows=14
nColumns=32
inDegrees=yes

Units are S.I. units (second, meters, Newtons, ...)
If the header above contains a line with 'inDegrees', this indicates whether rotational values are in degrees (yes) or radians (no).

endheader
time	pelvis_tilt	pelvis_list	pelvis_rotation	pelvis_tx	pelvis_ty	pelvis_tz	hip_flexion_r	hip_adduction_r	hip_rotation_r	knee_angle_r	knee_adduction_r	med_cond_adduction_r	lat_cond_adduction_r	patella_r_constrained_knee_angle	ankle_angle_r	subtalar_angle_r	mtp_angle_r	hip_flexion_l	hip_adduction_l	hip_rotation_l	knee_angle_l	knee_adduction_l	med_cond_adduction_l	lat_cond_adduction_l	patella_l_constrained_knee_angle	ankle_angle_l	subtalar_angle_l	mtp_angle_l	lumbar_extension	lumbar_bending	lumbar_rotation
      0.00500000	      5.96104570	     -6.05763163	     -2.50539699	      0.19588078	      0.92314508	     -1.19843351	     -8.35371177	    -12.98651163	    -36.81979557	      2.72231130	      0.00000000	      0.00000000	     -0.00000000	      0.04751330	    -16.67366066	     19.26354906	      0.00000000	    -12.19917937	    -23.27620716	    -37.14520857	      9.65028492	     -0.00000000	     -0.00000000	      0.00000000	      0.16842925	    -18.71880253	     19.42802850	      0.00000000	    -38.13458276	      5.86044765	     -0.64602141
      0.01000000	      5.96225720	     -6.04937833	     -2.41757886	      0.19587860	      0.92313606	     -1.19858337	     -8.37042767	    -12.99573437	    -36.94414009	      2.68641333	     -0.00000000	     -0.00000000	      0.00000000	      0.04688676	    -16.63022862	     19.27067241	     -0.00000000	    -12.15151090	    -23.28304783	    -37.04182738	      9.64871925	      0.00000000	      0.00000000	     -0.00000000	      0.16840192	    -18.71061329	     19.42522065	     -0.00000000	    -38.12811102	      5.97135758	     -0.51242236
      0.01500000	      5.95365574	     -6.04423992	     -2.43476454	      0.19588731	      0.92312236	     -1.19854713	     -8.36226865	    -12.99859772	    -36.91948447	      2.70299937	     -0.00000000	     -0.00000000	      0.00000000	      0.04717624	    -16.63951068	     19.26545499	     -0.00000000	    -12.15103530	    -23.27554715	    -37.06180775	      9.64806163	      0.00000000	      0.00000000	     -0.00000000	      0.16839044	    -18.70884566	     19.42564429	      0.00000000	    -38.11486880	      5.94601507	     -0.53940970
      0.02000000	      5.95800420	     -6.07515984	     -2.45664021	      0.19591326	      0.92313629	     -1.19848363	     -8.36215296	    -12.96384697	    -36.88513967	      2.70588201	      0.00000000	     -0.00000000	      0.00000000	      0.04722655	    -16.66373541	     19.25697652	     -0.00000000	    -12.18046713	    -23.31097904	    -37.07458898	      9.64908428	      0.00000000	     -0.00000000	      0.00000000	      0.16840829	    -18.71278492	     19.42757953	      0.00000000	    -38.12015494	      5.94165358	     -0.56053941
      0.02500000	      5.95341917	     -6.07204428	     -2.45388146	      0.19596053	      0.92313165	     -1.19846050	     -8.37601071	    -12.95675233	    -36.87058169	      2.73888232	     -0.00000000	     -0.00000000	      0.00000000	      0.04780251	    -16.65569904	     19.25485031	     -0.00000000	    -12.17790616	    -23.30701217	    -37.09147381	      9.65002284	      0.00000000	     -0.00000000	      0.00000000	      0.16842467	    -18.68407917	     19.42681005	      0.00000000	    -38.10085437	      5.95366004	     -0.48676187
      0.03000000	      5.93419265	     -6.04440765	     -2.44019797	      0.19594252	      0.92311544	     -1.19850292	     -8.33762580	    -13.00088952	    -36.91908281	      2.68472662	     -0.00000000	     -0.00000000	      0.00000000	      0.04685732	    -16.62989326	     19.27060941	      0.00000000	    -12.13394331	    -23.27559496	    -37.07898479	      9.64868637	      0.00000000	      0.00000000	     -0.00000000	      0.16840135	    -18.71195948	     19.42581098	     -0.00000000	    -38.08462315	      5.94144186	     -0.54924778
      0.03500000	      5.94413514	     -6.03055185	     -2.39559497	      0.19593240	      0.92310574	     -1.19858080	     -8.34429782	    -13.02519355	    -37.00047396	      2.63470050	     -0.00000000	     -0.00000000	      0.00000000	      0.04598420	    -16.56960101	     19.27526709	     -0.00000000	    -12.12406109	    -23.26931346	    -37.00764798	      9.64871200	     -0.00000000	      0.00000000	     -0.00000000	      0.16840179	    -18.69078351	     19.42051926	     -0.00000000	    -38.08386539	      5.96871455	     -0.53890798
      0.04000000	      5.94717779	     -6.05309620	     -2.41886844	      0.19595178	      0.92314010	     -1.19852019	     -8.35880828	    -12.98651858	    -36.94378764	      2.69020448	     -0.00000000	     -0.00000000	      0.00000000	      0.04695293	    -16.64373385	     19.25934252	     -0.00000000	    -12.14595666	    -23.29130720	    -37.03321463	      9.64942829	     -0.00000000	      0.00000000	     -0.00000000	      0.16841429	    -18.70844919	     19.42383409	     -0.00000000	    -38.08524300	      5.95066676	     -0.56589939
      0.04500000	      5.91239120	     -6.06531717	     -2.40955090	      0.19596925	      0.92307976	     -1.19851848	     -8.31409747	    -12.97760073	    -36.97504818	      2.65950282	      0.00000000	      0.00000000	     -0.00000000	      0.04641708	    -16.59523601	     19.27015893	     -0.00000000	    -12.10396022	    -23.30985322	    -37.02475122	      9.64809494	      0.00000000	      0.00000000	     -0.00000000	      0.16839102	    -18.69085973	     19.42536790	     -0.00000000	    -38.03920922	      5.97455139	     -0.56404750
      0.05000000	      5.89648077	     -6.06892478	     -2.50072199	      0.19599429	      0.92307463	     -1.19834934	     -8.31002945	    -12.95727312	    -36.79985146	      2.76571627	     -0.00000000	      0.00000000	     -0.00000000	      0.04827086	    -16.69196351	     19.24971840	     -0.00000000	    -12.13798507	    -23.29934807	    -37.13477890	      9.65266543	     -0.00000000	      0.00000000	     -0.00000000	      0.16847079	    -18.72574891	     19.42639360	     -0.00000000	    -38.02085469	      5.91686773	     -0.52375156
      0.05500000	      5.87595855	     -6.05713668	     -2.39636209	      0.19598903	      0.92303681	     -1.19853426	     -8.27158606	    -12.98734494	    -36.98799509	      2.63721667	      0.00000000	     -0.00000000	      0.00000000	      0.04602811	    -16.56748842	     19.26917841	     -0.00000000	    -12.05636881	    -23.30536962	    -37.00011308	      9.64884378	     -0.00000000	     -0.00000000	      0.00000000	      0.16840409	    -18.67481833	     19.42642529	     -0.00000000	    -37.98314477	      5.96977518	     -0.61150372
      0.06000000	      5.88846039	     -6.04050174	     -2.38388298	      0.19602811	      0.92304665	     -1.19854339	     -8.29558518	    -13.00560632	    -37.03732779	      2.64269269	      0.00000000	      0.00000000	     -0.00000000	      0.04612369	    -16.56548124	     19.27094148	      0.00000000	    -12.06277153	    -23.28567148	    -37.01217976	      9.64853064	      0.00000000	     -0.00000000	      0.00000000	      0.16839863	    -18.69051526	     19.42646206	      0.00000000	    -37.98085871	      5.97613315	     -0.56696953
      0.06500000	      5.86473870	     -6.04872822	     -2.38454843	      0.19602198	      0.92303096	     -1.19852839	     -8.26043106	    -12.99966557	    -37.01952303	      2.62103969	      0.00000000	     -0.00000000	      0.00000000	      0.04574577	    -16.56339104	     19.27045405	      0.00000000	    -12.03921355	    -23.29829437	    -36.99233579	      9.64882753	     -0.00000000	      0.00000000	     -0.00000000	      0.16840381	    -18.67729006	     19.42629599	      0.00000000	    -37.95872999	      6.01361882	     -0.45692744
      0.07000000	      5.83913633	     -6.02808824	     -2.41058400	      0.19604966	      0.92299484	     -1.19847721	     -8.23686897	    -13.01884843	    -36.97572486	      2.64799737	      0.00000000	      0.00000000	     -0.00000000	      0.04621627	    -16.58075447	     19.26848673	     -0.00000000	    -12.02115434	    -23.27100903	    -37.03643850	      9.65014062	      0.00000000	      0.00000000	     -0.00000000	      0.16842673	    -18.69074999	     19.42734952	      0.00000000	    -37.92518457	      5.95339952	     -0.54276607
